<svg class="aspire-icon aspire-account-icon" fill="none" height="32" viewbox="0 0 32 32" width="32" xmlns="http://www.w3.org/2000/svg"><g clip-path="url(#Account_svg__a)" clip-rule="evenodd" fill="currentColor" fill-rule="evenodd"><path d="M16 18a5 5 0 1 0 0-10 5 5 0 0 0 0 10m0-2a3 3 0 1 0 0-6 3 3 0 0 0 0 6"></path><path d="M16 30c7.732 0 14-6.268 14-14S23.732 2 16 2 2 8.268 2 16s6.268 14 14 14m9.2-6.296A11.95 11.95 0 0 0 28 16c0-6.627-5.373-12-12-12S4 9.373 4 16c0 2.933 1.052 5.62 2.8 7.704.555-.91 1.42-1.763 2.666-2.55 1.743-1.1 4.187-1.6 6.534-1.6s4.79.5 6.534 1.6c1.246.787 2.111 1.64 2.667 2.55Zm-1.479 1.482c-.314-.727-.961-1.524-2.255-2.34-1.313-.83-3.341-1.293-5.466-1.293s-4.153.464-5.466 1.293c-1.294.816-1.94 1.613-2.255 2.34A11.95 11.95 0 0 0 16 28c2.94 0 5.634-1.058 7.721-2.814"></path></g><defs><clippath id="Account_svg__a"><path d="M2 2h28v28H2z" fill="#fff"></path></clippath></defs></svg>