<svg class="aspire-icon aspire-cart-icon" fill="none" height="32" viewbox="0 0 32 32" width="32" xmlns="http://www.w3.org/2000/svg"><g fill="currentColor"><path clip-rule="evenodd" d="M3.429 3a.929.929 0 0 0 0 1.857h2.085l3.443 12.05-1.766 5.3a.93.93 0 0 0 .88 1.222h15.786a.929.929 0 1 0 0-1.857H9.36l1.238-3.715h14.188c.41 0 .771-.269.89-.662L28.46 7.91a.928.928 0 0 0-.89-1.196H7.976l-.869-3.04A.93.93 0 0 0 6.214 3zm7.2 13L8.507 8.571h17.816L24.095 16z" fill-rule="evenodd"></path><path d="M11.786 27.143a1.857 1.857 0 1 1-3.715 0 1.857 1.857 0 0 1 3.715 0M22.929 29a1.857 1.857 0 1 0 0-3.714 1.857 1.857 0 0 0 0 3.714"></path></g></svg>