<svg width="152" height="44" viewBox="0 0 152 44" fill="none" xmlns="http://www.w3.org/2000/svg">
<path d="M21.8927 0C9.84006 0 0 9.8883 0 22C0 34.1117 9.84006 44 21.8927 44C33.9453 44 43.7854 34.1117 43.7854 22C43.7854 9.8883 33.9453 0 21.8927 0Z" fill="#004070"/>
<path d="M21.8927 9.94691C15.255 9.94691 9.8983 15.3299 9.8983 22.0001C9.8983 28.6703 15.255 34.0533 21.8927 34.0533C28.5304 34.0533 33.8871 28.6703 33.8871 22.0001C33.8871 15.3299 28.5304 9.94691 21.8927 9.94691Z" fill="white"/>
<path d="M42.2133 22C42.2133 33.2926 33.0719 42.4203 21.8927 42.4203C10.7134 42.4203 1.57207 33.2926 1.57207 22C1.57207 10.7075 10.6552 1.57982 21.8927 1.57982C33.1302 1.57982 42.2133 10.766 42.2133 22ZM21.8927 2.39897C11.121 2.39897 2.38723 11.1756 2.38723 22C2.38723 32.8245 11.121 41.6011 21.8927 41.6011C32.6644 41.6011 41.3981 32.8245 41.3981 22C41.3981 11.1756 32.6644 2.39897 21.8927 2.39897Z" fill="white"/>
<path d="M27.3658 10.0054L29.2872 5.32453C28.9961 5.20751 28.6467 5.03198 28.2974 4.91496L26.376 9.59581C26.7253 9.71283 27.0164 9.82985 27.3658 10.0054Z" fill="white"/>
<path d="M21.7762 8.71764V7.19637H23.0571L24.1634 8.95169C24.571 9.0102 25.0368 9.12722 25.4444 9.24424L24.1052 7.13786C24.8621 6.96232 25.5026 6.2602 25.5026 5.49956C25.5026 4.73892 24.6292 3.74424 23.6394 3.74424H20.7281V8.77615C21.0775 8.77615 21.4268 8.77615 21.7179 8.77615L21.7762 8.71764ZM21.7762 4.68041H23.6394C24.1052 4.68041 24.4545 5.03147 24.4545 5.49956C24.4545 5.96764 24.1052 6.31871 23.6394 6.31871H21.7762V4.6219V4.68041Z" fill="white"/>
<path d="M12.6931 12.4046L11.5286 11.3514L12.926 9.77161C13.5665 9.06948 13.5665 7.95778 12.8678 7.31416C12.1691 6.67055 11.0046 6.78757 10.3641 7.4897L8.26798 9.83012L11.9362 13.1652C12.1691 12.9312 12.402 12.6971 12.6349 12.4631L12.6931 12.4046ZM9.66539 9.59608L11.0628 8.0748C11.3539 7.72374 11.8779 7.72374 12.2273 8.0748C12.5766 8.36736 12.5766 8.89395 12.2273 9.24502L10.8299 10.7663L9.60716 9.65459L9.66539 9.59608Z" fill="white"/>
<path d="M31.791 8.13245C32.5479 7.95692 33.9453 9.36118 34.1782 10.2973C34.4111 10.1218 34.8769 9.77075 34.8769 9.77075C34.2946 8.07394 31.9656 6.43565 30.8593 7.48884C30.2189 8.13245 30.5682 9.06862 31.1505 9.65373L31.7327 10.2388C32.315 10.8239 32.7808 11.4091 32.315 11.8186C31.8492 12.2282 30.4518 11.2335 29.6366 9.4782L28.8797 10.0048C29.0544 10.4729 29.4619 11.1165 29.986 11.7016C30.5682 12.3452 31.2669 12.7548 31.8492 12.8718C32.315 12.9888 32.7808 12.8718 33.0719 12.6378C33.8288 11.9356 33.5377 10.8825 32.3732 9.65373L31.9074 9.12714C31.3834 8.54203 31.558 8.24948 31.791 8.19096V8.13245Z" fill="white"/>
<path d="M16.303 4.6222C15.9537 4.73922 15.6043 4.85624 15.255 4.97326L14.9056 10.7073C15.255 10.4733 15.6043 10.2977 15.9537 10.1222V8.77645C16.7106 8.4839 17.4093 8.19135 18.1662 8.01582L19.0396 9.0105C19.4472 8.95199 19.7965 8.83496 20.2041 8.83496L16.3613 4.56369L16.303 4.6222ZM16.0119 7.89879V5.7339C16.0701 5.7339 17.5258 7.3722 17.5258 7.3722C17.0017 7.54773 16.5359 7.72326 16.0119 7.89879Z" fill="white"/>
<path d="M11.878 35.4579L11.6451 35.2823L11.8197 34.5802L11.1793 34.0536L10.5388 34.3461L10.3059 34.1706L12.1691 33.293L12.402 33.4685L11.8197 35.4579H11.878ZM12.1109 33.644L11.4704 33.9366L11.9362 34.3461L12.1109 33.644Z" fill="white"/>
<path d="M13.7411 34.4047L12.6931 35.9845L12.4602 35.8089L13.5082 34.2291L13.7411 34.4047Z" fill="white"/>
<path d="M14.5563 34.9305L14.9057 36.7444L15.5461 35.4571L15.779 35.5742L14.9057 37.271L14.6728 37.1539L14.3234 35.3401L13.6247 36.6273L13.3918 36.5103L14.2652 34.8135L14.4981 34.9305H14.5563Z" fill="white"/>
<path d="M17.8169 36.3348L17.7005 36.5688L17.06 36.3348L16.536 37.8561L16.3031 37.7391L16.8271 36.2178L16.1866 35.9837L16.3031 35.7497L17.8169 36.2763V36.3348Z" fill="white"/>
<path d="M21.9509 37.7389H22.8243V38.2655C22.8243 38.6166 22.4167 38.8506 21.9509 38.7921C21.4269 38.7921 20.9611 38.4411 20.9611 37.7974C20.9611 37.2709 21.4269 36.8028 22.0091 36.8613C22.4749 36.8613 22.7078 37.0953 22.8243 37.2123L22.6496 37.3879C22.5331 37.2709 22.4167 37.0953 22.0673 37.0953C21.5433 37.0953 21.2522 37.3879 21.2522 37.7974C21.2522 38.1485 21.5433 38.4996 22.0091 38.4996C22.3585 38.4996 22.5914 38.3826 22.5914 38.207V37.973H22.0091V37.6804L21.9509 37.7389Z" fill="white"/>
<path d="M24.8621 36.6275V36.9201L23.6394 37.0956V37.5637C23.6976 37.5637 24.3381 37.4467 24.3381 37.4467V37.7392L23.7559 37.8562V38.4413C23.8141 38.4413 25.1533 38.2658 25.1533 38.2658V38.5584L23.6394 38.7924L23.3483 36.9201L24.8621 36.686V36.6275Z" fill="white"/>
<path d="M26.5506 36.1596C26.8418 36.1011 27.1329 36.1596 27.2493 36.5107C27.3658 36.9202 27.1329 37.0958 27.0164 37.1543L27.5987 37.7979L27.3076 37.9149L26.7253 37.2713L26.0848 37.4468L26.3177 38.2075H26.0848C26.0848 38.266 25.5608 36.4521 25.5608 36.4521L26.6089 36.1596H26.5506ZM25.8519 36.6277L26.0266 37.1543L26.8418 36.9202C27.0164 36.9202 27.1329 36.7447 27.0747 36.5692C27.0164 36.3936 26.8418 36.3351 26.6671 36.3936L25.8519 36.6277Z" fill="white"/>
<path d="M32.3732 35.0482L32.1403 35.2237L31.5581 34.8726L30.8594 35.3407L30.9758 36.0428L30.7429 36.2184L30.3354 34.1705L30.5683 33.995L32.315 35.0482H32.3732ZM30.6847 34.346L30.8012 35.0482L31.267 34.6971L30.6265 34.346H30.6847Z" fill="white"/>
<path d="M31.7909 33.059L33.0719 34.4632L32.8972 34.6387L31.6162 33.2345L31.7909 33.059Z" fill="white"/>
<path d="M32.5479 32.3562L34.3529 32.4732L33.3048 31.537L33.4795 31.3615L34.8769 32.6487L34.7022 32.8243L32.8972 32.7073L33.9453 33.7019L33.7706 33.8775L32.3732 32.5902L32.5479 32.4147V32.3562Z" fill="white"/>
<path d="M29.3455 34.873L29.1126 34.99L29.0543 36.3357L27.9481 35.5751L27.7152 35.6921L28.5303 37.3889L28.7632 37.2719L28.2392 36.1017L29.3455 36.8038V35.5166L29.9859 36.6868L30.2189 36.5113L29.3455 34.873Z" fill="white"/>
<path d="M11.1792 32.415C11.0046 31.8299 10.4223 31.3033 10.0147 31.3033C9.60715 31.3033 9.84006 31.3033 9.78183 31.3618C9.66538 31.4203 9.66538 31.5373 9.60715 31.5958C9.60715 31.7714 9.60715 32.0054 9.78183 32.1809L9.95651 32.4735C10.1312 32.7075 10.2476 32.8831 10.2476 33.0586C10.2476 33.1171 10.2476 33.1756 10.1312 33.2341C10.1312 33.2341 10.073 33.2341 10.0147 33.2341C9.72361 33.2341 9.2578 32.766 9.08313 32.0639L8.90845 32.2394C8.90845 32.415 9.08313 32.7075 9.2578 32.9416C9.43248 33.1756 9.72361 33.4097 9.89828 33.4682C9.95651 33.4682 10.0147 33.4682 10.1312 33.4682C10.2476 33.4682 10.3059 33.4682 10.3641 33.4097C10.4805 33.3511 10.5388 33.2341 10.5388 33.1171C10.5388 32.8831 10.4805 32.5905 10.1894 32.2394L10.0147 32.0054C9.89828 31.8299 9.89828 31.7128 9.89828 31.5958C9.89828 31.5373 9.95651 31.4788 10.073 31.4788C10.4223 31.4788 10.8299 32.0054 10.9463 32.415C11.0046 32.415 11.0628 32.3565 11.121 32.298L11.1792 32.415Z" fill="white"/>
<path d="M19.4472 37.8563L18.8068 37.6808V37.3882C18.865 37.3882 19.5637 37.5638 19.5637 37.5638V37.8563H19.4472Z" fill="white"/>
<path d="M23.4647 10.8833C23.9305 18.0801 26.9583 23.346 31.8492 27.0322C32.6061 25.5109 33.0137 23.8141 33.0137 22.0003C33.0137 16.3248 28.8215 11.6439 23.4065 10.8833H23.4647Z" fill="#004070"/>
<path d="M20.3205 10.8833C19.8547 18.0801 16.827 23.346 11.9361 27.0322C11.1792 25.5109 10.7716 23.8141 10.7716 22.0003C10.7716 16.3248 14.9638 11.6439 20.3788 10.8833H20.3205Z" fill="#004070"/>
<path d="M21.8926 25.5689C19.2725 25.5689 17.1764 27.6168 17.1764 30.0742C17.1764 32.5317 17.4675 31.771 17.8751 32.4732C19.0978 32.9413 20.4952 33.2338 21.8926 33.2338C23.29 33.2338 24.6875 32.9413 25.9102 32.4732C26.376 31.771 26.6089 30.9519 26.6089 30.0742C26.6089 27.5583 24.5128 25.5689 21.8926 25.5689Z" fill="#004070"/>
<path d="M22.9408 10.824C22.5914 10.824 22.2421 10.824 21.8927 10.824C21.5434 10.824 21.194 10.824 20.8447 10.824C20.7864 15.0953 19.7384 18.723 17.9916 21.824H25.7356C23.9888 18.723 22.9408 15.0953 22.8825 10.824H22.9408Z" fill="#E30613"/>
<path d="M26.0267 22.2337H17.7587C16.3613 24.5156 14.6146 26.505 12.5185 28.2018C13.3919 29.5475 14.6146 30.7177 15.9538 31.5954C15.9538 31.3028 15.8955 31.0103 15.8955 30.6592C15.8955 27.5581 18.5739 25.0422 21.8927 25.0422C25.2116 25.0422 27.8899 27.5581 27.8899 30.6592C27.8899 33.7603 27.8899 31.3028 27.8317 31.5954C29.2291 30.7177 30.3936 29.5475 31.267 28.2018C29.1709 26.505 27.4241 24.5741 26.0267 22.2337Z" fill="#E30613"/>
<path d="M23.7559 29.3137C23.1736 29.3137 22.5914 29.7818 22.3003 30.6595C22.3003 30.6595 22.3003 30.7765 22.4167 30.7765C22.5332 30.7765 22.4749 30.7765 22.5332 30.7765C22.7661 30.2499 23.2319 29.9573 23.523 29.9573C23.8141 29.9573 23.8141 30.0744 23.8141 30.2499C23.8141 30.4254 23.6977 30.5424 23.523 30.5424C23.523 30.5424 23.523 30.718 23.5812 30.835C23.6394 30.8935 23.8141 30.952 23.9306 30.952C24.3964 30.952 24.7457 30.601 24.7457 30.1329C24.7457 29.6648 24.3964 29.3137 23.9306 29.3137H23.7559Z" fill="#CFAC5D"/>
<path d="M20.0295 29.3137C20.6117 29.3137 21.194 29.7818 21.4851 30.6595C21.4851 30.6595 21.4851 30.7765 21.3687 30.7765C21.2522 30.7765 21.3104 30.7765 21.2522 30.7765C21.0193 30.2499 20.5535 29.9573 20.2624 29.9573C19.9713 29.9573 19.9713 30.0744 19.9713 30.2499C19.9713 30.4254 20.0877 30.5424 20.2624 30.5424C20.2624 30.5424 20.2624 30.718 20.2042 30.835C20.1459 30.8935 19.9713 30.952 19.8548 30.952C19.389 30.952 19.0397 30.601 19.0397 30.1329C19.0397 29.6648 19.389 29.3137 19.8548 29.3137H20.0295Z" fill="#CFAC5D"/>
<path d="M21.8927 30.7766C21.8927 30.7766 21.7762 30.7766 21.7762 30.6596C21.7762 30.1915 21.0775 29.2553 21.0775 28.9042C21.0775 28.5532 21.6598 27.0319 21.8345 27.0319C22.0091 27.0319 22.5914 28.4947 22.5914 28.9042C22.5914 29.3138 21.8927 30.133 21.8927 30.6596C21.8927 30.6596 21.8927 30.7766 21.7762 30.7766H21.8927Z" fill="#CFAC5D"/>
<path d="M22.3003 31.4787C22.1838 31.4202 22.0674 31.2447 22.0091 31.1277C22.0091 31.1277 21.9509 31.0106 21.8927 31.0106C21.8345 31.0106 21.7762 31.0106 21.7762 31.1277C21.7762 31.3032 21.6598 31.4202 21.4851 31.4787C21.5433 31.6542 21.718 31.8298 21.8927 31.9468C22.0674 31.8298 22.1838 31.5957 22.3003 31.4787Z" fill="#CFAC5D"/>
<path d="M95.1421 33.3135H94.0154V37.8426H95.1421V33.3135Z" fill="#004070"/>
<path d="M93.2641 33.3136H92.2625V32.3072H91.1358V36.2701C91.1358 37.3394 91.7618 37.9684 92.7633 37.9684H93.3893V36.962H92.8259C92.5129 36.962 92.3877 36.7733 92.3877 36.4588V34.6975H93.3893V33.5652C93.3893 33.5652 93.3893 33.5652 93.3893 33.5023L93.2641 33.3136Z" fill="#004070"/>
<path d="M93.8901 31.9297C93.8901 32.8732 95.2672 32.8732 95.2672 31.9297C95.2672 30.9861 93.8901 30.9861 93.8901 31.9297Z" fill="#004070"/>
<path d="M98.2093 34.3826C98.4597 34.3826 98.7727 34.5085 98.9604 34.6343H99.023L99.7116 33.8794V33.8165C99.2734 33.3762 98.7727 33.1875 98.1467 33.1875C96.707 33.1875 95.768 34.131 95.768 35.5778C95.768 37.0246 96.707 37.9681 98.1467 37.9681C99.5864 37.9681 99.2734 37.7794 99.7116 37.3391C99.7116 37.3391 99.7116 37.3391 99.7116 37.2762L99.023 36.5214C99.023 36.5214 99.023 36.5214 98.9604 36.5214C98.7727 36.7101 98.4597 36.773 98.2093 36.773C97.5207 36.773 97.0826 36.2697 97.0826 35.5778C97.0826 34.8859 97.5833 34.3826 98.2093 34.3826Z" fill="#004070"/>
<path d="M102.153 35.0118C101.464 35.0118 101.464 34.6973 101.464 34.6344C101.464 34.3199 101.965 34.3199 102.153 34.3199C102.528 34.3199 102.841 34.4457 103.092 34.6344C103.092 34.6344 103.092 34.6344 103.154 34.6344L103.78 33.8795V33.8166C103.342 33.4392 102.841 33.2505 102.09 33.2505C101.339 33.2505 101.151 33.3763 100.838 33.565C100.4 33.8166 100.15 34.1941 100.15 34.6973C100.15 35.515 100.838 36.0182 102.028 36.1441C102.716 36.1441 102.779 36.3957 102.779 36.5215C102.779 36.7731 102.466 36.8989 102.153 36.8989C101.652 36.8989 101.151 36.7102 100.776 36.3957H100.713L100.15 37.2134C100.15 37.2134 100.15 37.2134 100.15 37.2763C100.838 37.9682 101.527 38.0311 102.153 38.0311C102.779 38.0311 103.718 37.7166 103.968 37.0876C104.031 36.8989 104.093 36.7102 104.093 36.5215C104.093 35.3263 103.092 35.0747 102.153 35.0118Z" fill="#004070"/>
<path d="M83.061 33.2505C82.5603 33.2505 82.1847 33.4392 81.7465 33.7537V33.3763H80.6824V37.9053H81.8091V35.4521C81.8091 34.886 82.2473 34.4457 82.8107 34.4457C83.4992 34.4457 83.7496 35.0118 83.7496 35.515V37.9682H84.8763V35.515C84.8763 34.1941 84.1252 33.3134 82.9358 33.3134L83.061 33.2505Z" fill="#004070"/>
<path d="M79.8059 33.3133H78.6792V33.502C78.3036 33.1875 77.8654 33.1875 77.4273 33.1875C76.0502 33.1875 75.1112 34.131 75.1112 35.5149C75.1112 36.8988 75.3616 36.8988 75.7372 37.2762C76.1127 37.6536 76.6761 37.9052 77.3647 37.9052H77.4273C77.8654 37.9052 78.3036 37.9052 78.6792 37.5278V37.8423H79.8059V33.3133ZM78.3662 36.3955C78.1784 36.6472 77.8028 36.773 77.4273 36.773C76.7387 36.773 76.2379 36.2697 76.2379 35.5778C76.2379 34.8859 76.7387 34.3826 77.4273 34.3826C78.1158 34.3826 78.6166 35.0117 78.6166 35.5778C78.6166 36.1439 78.554 36.2068 78.3662 36.3955Z" fill="#004070"/>
<path d="M90.2596 33.3133H89.1328V33.502C88.7572 33.1875 88.3191 33.1875 87.8809 33.1875C86.5038 33.1875 85.5648 34.131 85.5648 35.5149C85.5648 36.8988 85.8152 36.8988 86.1908 37.2762C86.5664 37.6536 87.1297 37.9052 87.8183 37.9052H87.8809C88.3191 37.9052 88.7572 37.9052 89.1328 37.5278V37.8423H90.2596V33.3133ZM88.8824 36.3955C88.6946 36.6472 88.3191 36.773 87.9435 36.773C87.2549 36.773 86.7542 36.2697 86.7542 35.5778C86.7542 34.8859 87.2549 34.3826 87.9435 34.3826C88.6321 34.3826 89.1328 35.0117 89.1328 35.5778C89.1328 36.1439 89.0702 36.2068 88.8824 36.3955Z" fill="#004070"/>
<path d="M74.4852 33.7539H72.4822C72.4822 33.7539 72.4196 33.7539 72.4196 33.691V32.3071C72.4196 32.3071 72.4196 32.2442 72.4822 32.2442H75.299C75.299 32.2442 75.3616 32.2442 75.3616 32.1813V31.112C75.3616 31.112 75.3616 31.0491 75.299 31.0491H71.2928C71.2928 31.0491 71.2302 31.0491 71.2302 31.112V37.9055C71.2302 37.9055 71.2302 37.9684 71.2928 37.9684H72.357C72.357 37.9684 72.4196 37.9684 72.4196 37.9055V35.1378C72.4196 35.1378 72.4196 35.0749 72.4822 35.0749H74.4852C74.4852 35.0749 74.5478 35.0749 74.5478 35.012V33.9426C74.5478 33.9426 74.5478 33.8797 74.4852 33.8797V33.7539Z" fill="#004070"/>
<path d="M59.8377 29.4765C59.0239 29.4765 58.0224 29.162 57.772 29.162C57.7094 29.162 57.6468 29.162 57.6468 29.2878C57.6468 29.2878 57.6468 29.2878 57.6468 29.3507L59.3995 32.0555C62.1538 32.6217 65.221 30.1684 67.9126 31.4894C67.9126 31.4894 67.9752 31.4894 68.0378 31.4894L69.2271 29.6652V29.5394C66.2225 27.1491 63.969 29.6652 59.8377 29.4765Z" fill="#004070"/>
<path d="M67.2867 32.5592C65.2211 31.8673 63.3432 33.1882 60.4637 33.314C60.4011 33.314 60.3386 33.314 60.3386 33.4398L63.4684 38.2834C63.4684 38.2834 63.4684 38.2834 63.5936 38.2834C63.5936 38.2834 63.5936 38.2834 63.5936 38.2205L62.905 35.1382C63.1554 35.0753 64.9081 34.4463 65.7844 34.8237L67.2241 32.6221C67.2241 32.6221 67.2241 32.6221 67.2241 32.5592H67.2867Z" fill="#004070"/>
<path d="M108.162 35.2634H111.48V34.3198H108.162V32.7473H111.605V31.8037H107.223V37.7795H111.605V36.836H108.162V35.2634Z" fill="#004070"/>
<path d="M116.299 33.6282V33.5653H115.235L114.296 35.0749L113.357 33.5653H112.293V33.6282L113.67 35.6411L112.168 37.7798H113.232L114.296 36.2701L115.298 37.7798H116.362L114.86 35.6411L116.299 33.6282Z" fill="#004070"/>
<path d="M120.994 34.1313C120.806 33.9426 120.556 33.7538 120.306 33.6909C120.055 33.5651 119.742 33.5022 119.429 33.5022C119.116 33.5022 118.866 33.5651 118.616 33.6909C118.365 33.8168 118.115 34.0055 117.99 34.2571V33.5651H117.113V39.7296H117.99V37.1506C118.052 37.2764 118.177 37.4022 118.303 37.4651C118.428 37.528 118.553 37.6538 118.678 37.7167C118.803 37.7167 118.929 37.8425 119.116 37.8425C119.242 37.8425 119.367 37.8425 119.492 37.8425C119.805 37.8425 120.118 37.8425 120.368 37.6538C120.619 37.528 120.869 37.4022 121.057 37.2135C121.245 37.0248 121.37 36.7732 121.495 36.5216C121.62 36.2071 121.62 35.9555 121.62 35.6409C121.62 35.3264 121.62 35.0748 121.495 34.7603C121.37 34.5087 121.245 34.2571 121.057 34.0684L120.994 34.1313ZM120.556 36.2071C120.556 36.3958 120.368 36.5216 120.306 36.6474C120.18 36.7732 120.055 36.8361 119.867 36.899C119.68 36.9619 119.492 37.0248 119.304 37.0248C119.116 37.0248 118.929 37.0248 118.741 36.899C118.553 36.8361 118.428 36.7103 118.303 36.5845C118.177 36.4587 118.115 36.3329 118.052 36.1442C117.99 35.9555 117.927 35.7667 117.927 35.6409C117.927 35.5151 117.927 35.2635 118.052 35.1377C118.052 34.949 118.177 34.8232 118.303 34.6974C118.428 34.5716 118.553 34.4458 118.741 34.3829C118.929 34.32 119.116 34.2571 119.304 34.2571C119.742 34.2571 120.055 34.3829 120.306 34.6345C120.556 34.8861 120.681 35.2006 120.681 35.578C120.681 35.9555 120.681 35.9555 120.556 36.1442V36.2071Z" fill="#004070"/>
<path d="M126.065 34.1317C125.877 33.943 125.626 33.7543 125.376 33.6285C125.063 33.5027 124.75 33.4398 124.437 33.4398C124.124 33.4398 123.811 33.4398 123.561 33.6285C123.06 33.8172 122.622 34.2575 122.434 34.7607C122.309 35.0123 122.246 35.3268 122.246 35.6414C122.246 35.9559 122.246 36.2704 122.434 36.5849C122.622 37.151 123.06 37.5285 123.623 37.7172C123.936 37.843 124.249 37.9059 124.562 37.9059C124.75 37.9059 124.875 37.9059 125.063 37.9059C125.251 37.9059 125.376 37.843 125.564 37.7801C125.689 37.7801 125.877 37.6543 126.002 37.5285C126.127 37.4656 126.252 37.3397 126.378 37.2139L125.814 36.6478C125.689 36.8365 125.501 36.8994 125.251 36.9623C125.063 37.0252 124.813 37.0881 124.562 37.0881C124.187 37.0881 123.874 36.9623 123.623 36.7736C123.373 36.5849 123.248 36.3333 123.185 36.0188H126.565C126.565 35.5785 126.565 35.201 126.503 34.8865C126.44 34.572 126.315 34.3204 126.065 34.0688V34.1317ZM123.185 35.2639C123.248 34.9494 123.436 34.6349 123.623 34.5091C123.874 34.3204 124.187 34.2575 124.437 34.2575C124.813 34.2575 125.063 34.3204 125.313 34.5091C125.564 34.6978 125.689 34.9494 125.689 35.2639H123.123H123.185Z" fill="#004070"/>
<path d="M129.57 33.5027C129.32 33.5027 129.132 33.5027 128.881 33.6285C128.631 33.6914 128.443 33.8801 128.318 34.1317V33.5656H127.442V37.7801H128.318V35.5156C128.318 35.3268 128.318 35.1381 128.443 35.0123C128.443 34.8865 128.568 34.7607 128.694 34.6349C128.819 34.5091 128.944 34.4462 129.069 34.4462C129.194 34.4462 129.382 34.3833 129.507 34.3833C129.633 34.3833 129.758 34.3833 129.945 34.3833C130.071 34.3833 130.196 34.5091 130.258 34.572L130.634 33.8172C130.509 33.6914 130.321 33.6285 130.196 33.5656C130.008 33.5027 129.82 33.4398 129.633 33.4398L129.57 33.5027Z" fill="#004070"/>
<path d="M132.074 33.5653H131.198V37.7798H132.074V33.5653Z" fill="#004070"/>
<path d="M132.011 31.9304C131.823 31.7417 131.51 31.7417 131.26 31.9304C131.135 31.9933 131.072 32.182 131.072 32.3078C131.072 32.4336 131.072 32.6223 131.26 32.7481C131.448 32.9368 131.823 32.9368 132.011 32.7481C132.136 32.6852 132.199 32.4965 132.199 32.3078C132.199 32.1191 132.199 31.9933 132.011 31.9304Z" fill="#004070"/>
<path d="M136.831 34.1317C136.643 33.943 136.393 33.7543 136.143 33.6285C135.83 33.5027 135.517 33.4398 135.204 33.4398C134.891 33.4398 134.578 33.4398 134.327 33.6285C134.077 33.7543 133.827 33.8801 133.639 34.0688C133.451 34.2575 133.263 34.5091 133.201 34.7607C133.075 35.0123 133.013 35.3268 133.013 35.6414C133.013 35.9559 133.013 36.2704 133.201 36.5849C133.388 37.151 133.827 37.5285 134.39 37.7172C134.703 37.843 135.016 37.9059 135.329 37.9059C135.517 37.9059 135.642 37.9059 135.83 37.9059C136.017 37.9059 136.143 37.843 136.33 37.7801C136.456 37.7801 136.643 37.6543 136.769 37.5285C136.894 37.4656 137.019 37.3397 137.144 37.2139L136.581 36.6478C136.456 36.8365 136.268 36.8994 136.017 36.9623C135.83 37.0252 135.579 37.0881 135.329 37.0881C134.953 37.0881 134.64 36.9623 134.39 36.7736C134.139 36.5849 134.014 36.3333 133.952 36.0188H137.332C137.332 35.5785 137.332 35.201 137.269 34.8865C137.207 34.572 137.082 34.3204 136.831 34.0688V34.1317ZM133.952 35.2639C134.014 34.9494 134.202 34.6349 134.39 34.5091C134.64 34.3204 134.953 34.2575 135.204 34.2575C135.579 34.2575 135.83 34.3204 136.08 34.5091C136.33 34.6978 136.456 34.9494 136.456 35.2639H133.889H133.952Z" fill="#004070"/>
<path d="M141.776 34.0055C141.588 33.8167 141.401 33.6909 141.213 33.628C140.963 33.5651 140.775 33.5022 140.524 33.5022C139.961 33.5022 139.523 33.7538 139.085 34.1942V33.5651H138.208V37.7796H139.085V35.578C139.085 35.3893 139.085 35.2635 139.147 35.0748C139.147 34.949 139.272 34.7603 139.398 34.6345C139.585 34.3829 139.898 34.2571 140.274 34.2571C140.65 34.2571 140.9 34.3829 141.088 34.5716C141.275 34.8232 141.401 35.0748 141.401 35.4522V37.7167H142.277V35.4522C142.277 35.1377 142.277 34.8861 142.152 34.5716C142.089 34.32 141.964 34.1313 141.776 33.9426V34.0055Z" fill="#004070"/>
<path d="M145.908 36.9623C145.72 36.9623 145.532 37.0252 145.344 37.0252C145.156 37.0252 144.969 37.0252 144.843 36.9623C144.656 36.9623 144.53 36.8365 144.405 36.7107C144.28 36.5849 144.155 36.4591 144.092 36.2704C144.03 36.0817 143.967 35.893 143.967 35.7043C143.967 35.5156 143.967 35.3268 144.092 35.1381C144.092 34.9494 144.28 34.8236 144.405 34.6978C144.53 34.572 144.656 34.5091 144.843 34.4462C145.031 34.3833 145.219 34.3204 145.344 34.3204C145.469 34.3204 145.657 34.3204 145.845 34.3833C146.033 34.3833 146.158 34.5091 146.283 34.6349L146.847 34.0688C146.659 33.8801 146.408 33.6914 146.158 33.5656C145.908 33.4397 145.657 33.4398 145.344 33.4398C145.031 33.4398 144.781 33.4397 144.468 33.5656C144.218 33.6285 143.967 33.8172 143.779 34.0059C143.592 34.1946 143.404 34.4462 143.279 34.6978C143.028 35.3268 143.028 36.0188 143.279 36.6478C143.404 36.8994 143.529 37.151 143.779 37.3397C143.967 37.5285 144.218 37.6543 144.468 37.7801C144.718 37.9059 145.031 37.9059 145.344 37.9059C145.657 37.9059 145.908 37.9059 146.221 37.7801C146.534 37.6543 146.784 37.4656 146.972 37.2768L146.346 36.7107C146.221 36.8365 146.033 36.9623 145.908 37.0252V36.9623Z" fill="#004070"/>
<path d="M151.667 34.8857C151.604 34.5712 151.479 34.3196 151.228 34.0679C151.041 33.8792 150.79 33.6905 150.54 33.5647C150.227 33.4389 149.914 33.376 149.601 33.376C149.288 33.376 148.975 33.376 148.725 33.5647C148.474 33.6905 148.224 33.8163 148.036 34.005C147.848 34.1938 147.66 34.4454 147.598 34.697C147.473 34.9486 147.41 35.2631 147.41 35.5776C147.41 35.8921 147.41 36.2067 147.598 36.5212C147.786 37.0873 148.224 37.4647 148.787 37.6534C149.1 37.7792 149.413 37.8421 149.726 37.8421C149.914 37.8421 150.039 37.8421 150.227 37.8421C150.415 37.8421 150.54 37.7792 150.728 37.7163C150.915 37.7163 151.041 37.5905 151.166 37.4647C151.291 37.4018 151.416 37.276 151.541 37.1502L150.978 36.5841C150.853 36.7728 150.665 36.8357 150.415 36.8986C150.227 36.9615 149.976 37.0244 149.726 37.0244C149.35 37.0244 149.037 36.8986 148.787 36.7099C148.537 36.5212 148.412 36.2696 148.349 35.955H151.729C151.729 35.5147 151.729 35.1373 151.667 34.8228V34.8857ZM148.349 35.2631C148.412 34.9486 148.599 34.6341 148.787 34.5083C149.037 34.3196 149.35 34.2567 149.601 34.2567C149.976 34.2567 150.227 34.3196 150.477 34.5083C150.728 34.697 150.853 34.9486 150.853 35.2631H148.286H148.349Z" fill="#004070"/>
<path d="M53.4529 31.9292L50.7612 37.905H51.7628L52.3261 36.647H55.5811L56.1445 37.905H57.146L54.4544 31.9292H53.3903H53.4529ZM52.7017 35.8292L53.9536 32.9986L55.2056 35.8292H52.7017Z" fill="#004070"/>
<path d="M51.9615 24.1253C51.1143 23.2739 50.7612 22.1386 50.7612 18.3071V11.2828C50.7612 7.38036 51.0436 6.31607 51.9615 5.46463C52.7382 4.68414 53.7267 4.32938 55.0682 4.32938C56.4098 4.32938 57.3983 4.7551 58.175 5.53558C59.0222 6.38702 59.3753 7.45131 59.3753 11.3537V18.3781C59.3753 22.2805 59.0222 23.3448 58.175 24.1962C57.3983 24.9767 56.4098 25.4024 55.0682 25.4024C53.7267 25.4024 52.7382 24.9767 51.9615 24.2672V24.1253ZM56.6216 22.0677V7.45131C56.6216 6.88369 56.2686 6.52892 55.7037 6.52892H54.3622C53.7973 6.52892 53.4443 6.88369 53.4443 7.45131V22.0677C53.4443 22.6353 53.7973 22.99 54.3622 22.99H55.7037C56.2686 22.99 56.6216 22.6353 56.6216 22.0677Z" fill="#004070"/>
<path d="M60.6463 4.47189H66.3654V6.74239H63.2587V13.7667H66.2948V16.0372H63.2587V25.0483H60.6463V4.47189Z" fill="#004070"/>
<path d="M67.4952 4.47189H73.2143V6.74239H70.1076V13.7667H73.1437V16.0372H70.1076V25.0483H67.4952V4.47189Z" fill="#004070"/>
<path d="M74.4147 4.47189H77.0271V25.0483H74.4147V4.47189Z" fill="#004070"/>
<path d="M79.4984 24.1253C78.5805 23.2739 78.2981 22.1386 78.2981 18.3071V11.2828C78.2981 7.38036 78.5805 6.31607 79.4984 5.46463C80.2045 4.7551 81.1929 4.32938 82.5345 4.32938C83.876 4.32938 84.8645 4.82605 85.5 5.46463C86.1354 6.10321 86.4885 6.95464 86.5591 10.5023V12.0633H83.9466V7.52227C83.9466 6.95464 83.5936 6.67083 83.0287 6.67083H81.899C81.3342 6.67083 80.9811 7.0256 80.9811 7.59322V22.2096C80.9811 22.7772 81.3342 23.1319 81.899 23.1319H83.0287C83.5936 23.1319 83.9466 22.7772 83.9466 22.2805V17.7395H86.5591V19.3005C86.4885 22.8481 86.206 23.6286 85.5 24.3381C84.8645 24.9767 83.876 25.4734 82.5345 25.4734C81.1929 25.4734 80.2045 25.0477 79.4984 24.3381V24.1253Z" fill="#004070"/>
<path d="M87.6888 4.47189H90.3012V25.0483H87.6888V4.47189Z" fill="#004070"/>
<path d="M91.431 24.9064L93.6904 4.47189H97.5738L99.8332 24.9064V25.1192H97.2207L96.7971 20.7911H94.1846L93.761 25.1192H91.431V24.9064ZM96.3735 18.5206L95.8086 11.4962L95.4556 6.8843L95.1025 11.4962L94.5377 18.5206H96.3735Z" fill="#004070"/>
<path d="M100.822 4.47189H103.434V22.7778H106.965V25.0483H100.822V4.47189Z" fill="#004070"/>
<path d="M112.119 24.2677C111.554 23.7 111.271 22.9196 111.271 19.4429V17.8819H113.813V22.4938C113.813 22.7777 114.025 22.9905 114.308 22.9905H115.72C116.002 22.9905 116.214 22.7777 116.214 22.4938V17.0305C116.214 16.7466 116.073 16.5338 115.861 16.3919L113.46 15.3985C112.119 14.76 111.413 13.6957 111.413 11.8509V9.86419C111.413 6.52939 111.625 5.81986 112.26 5.18128C112.895 4.54271 113.884 4.18794 115.084 4.18794C116.285 4.18794 117.273 4.54271 117.909 5.18128C118.544 5.81986 118.756 6.52939 118.826 10.0061V11.5671H116.285V7.02606C116.285 6.74225 116.073 6.52939 115.79 6.52939H114.59C114.308 6.52939 114.096 6.74225 114.096 7.02606V12.4895C114.096 12.8442 114.166 12.9861 114.519 13.128L116.779 14.1214C118.473 14.9019 118.968 15.8242 118.968 17.5981V19.4429C118.968 22.7777 118.756 23.4872 118.12 24.1258C117.485 24.7643 116.496 25.1901 115.225 25.1901C113.955 25.1901 112.754 24.9772 112.119 24.2677Z" fill="#004070"/>
<path d="M119.391 6.74249V4.47199H126.734V6.74249H124.404V25.0484H121.792V6.74249H119.391Z" fill="#004070"/>
<path d="M128.358 24.1254C127.511 23.274 127.158 22.1387 127.158 18.3072V11.2829C127.158 7.38046 127.44 6.31616 128.358 5.46473C129.135 4.68424 130.123 4.32948 131.465 4.32948C132.807 4.32948 133.795 4.7552 134.572 5.53568C135.419 6.38712 135.772 7.45141 135.772 11.3538V18.3782C135.772 22.2806 135.419 23.3449 134.572 24.1963C133.795 24.9768 132.807 25.4025 131.465 25.4025C130.123 25.4025 129.135 24.9768 128.358 24.2673V24.1254ZM133.018 22.0678V7.45141C133.018 6.88379 132.665 6.52902 132.1 6.52902H130.759C130.194 6.52902 129.841 6.88379 129.841 7.45141V22.0678C129.841 22.6354 130.194 22.9901 130.759 22.9901H132.1C132.665 22.9901 133.018 22.6354 133.018 22.0678Z" fill="#004070"/>
<path d="M136.973 4.47199H140.997C142.127 4.47199 143.045 4.82675 143.61 5.46533C144.245 6.10391 144.457 6.8844 144.457 9.50966V10.8578C144.457 13.6959 144.174 14.5473 143.539 15.1859C143.257 15.4697 142.974 15.6826 142.692 15.7535H142.55L143.186 17.3145L144.598 24.8355V25.1193H141.844L140.362 16.1793H139.514V25.1193H136.902V4.54294L136.973 4.47199ZM141.774 13.483V7.16821C141.774 6.88439 141.562 6.67154 141.28 6.67154H139.585V13.9088H141.28C141.562 13.9088 141.774 13.6959 141.774 13.4121V13.483Z" fill="#004070"/>
<path d="M145.869 4.47199H151.729V6.74249H148.481V13.554H151.588V15.7535H148.481V22.7779H151.729V25.0484H145.869V4.47199Z" fill="#004070"/>
</svg>
