<svg width="154" height="43" viewBox="0 0 154 43" fill="none" xmlns="http://www.w3.org/2000/svg">
<g clip-path="url(#clip0_1_2)">
<path d="M27.7132 1.64258L27.9192 1.78125C30.1843 3.27588 32.0067 3.54809 34.7815 3.54809C35.7596 3.54809 36.8098 3.36319 37.8137 3.01907L38.0763 2.92662L39.389 4.76536L39.2552 4.94513C34.3697 11.4218 38.1792 18.4173 40.8768 21.2062L41.1239 21.463L40.8716 21.7147C40.5164 22.0691 39.9038 22.7008 39.4508 23.1785L39.2963 23.3377L39.3066 23.5586V23.6356C39.3066 23.6921 39.3118 23.7486 39.3272 23.8513V23.8924C39.5589 28.2119 38.4366 31.761 35.9964 34.4369C33.4018 37.2824 29.3091 38.9927 24.4751 39.2598L24.2898 39.2701L24.1508 39.3985C22.9204 40.5181 21.6694 41.4478 21.654 41.4581L21.4378 41.6224L21.2215 41.4632C21.1701 41.4221 19.9345 40.5079 18.7196 39.4036L18.5806 39.2752L18.3953 39.2649C13.5613 38.9978 9.46855 37.2875 6.87394 34.4421C4.43376 31.761 3.31149 28.217 3.538 23.8924V23.8513C3.55345 23.7537 3.55345 23.7024 3.55859 23.6407V23.6253V23.5586L3.56889 23.3377L3.41445 23.1785C2.98716 22.7265 2.35395 22.0742 1.99359 21.7147L1.74133 21.463L1.98844 21.2062C4.68602 18.4173 8.49557 11.4218 3.61007 4.94513L3.47623 4.76536L4.79413 2.92662L5.05668 3.01907C6.06055 3.36319 7.11075 3.54809 8.08888 3.54809C10.8637 3.54809 12.6861 3.27588 14.9512 1.78125L15.1571 1.64258L15.3631 1.78125C17.3605 3.16288 19.291 3.81004 21.4429 3.81004C23.5948 3.81004 25.5253 3.16802 27.5228 1.78125L27.7287 1.64258" fill="#DEB500"/>
<path d="M6.55468 17.6367C8.08365 14.1339 8.65508 9.63458 6.08105 5.24317C6.72456 5.35617 7.39896 5.42807 8.08365 5.42807C10.7194 5.42807 12.7941 5.18667 15.121 3.87695C16.9589 4.98636 19.0181 5.69002 21.4274 5.69002C23.847 5.69002 25.9062 4.98123 27.7389 3.87695C30.071 5.19181 32.1456 5.42807 34.7763 5.42807C35.461 5.42807 36.1354 5.35617 36.784 5.2329C34.2048 9.63972 34.7711 14.139 36.3052 17.6419H6.55468" fill="white"/>
<path d="M36.3054 17.636C34.7764 14.1331 34.205 9.63386 36.7842 5.22704C36.1355 5.35031 35.4611 5.42221 34.7764 5.42221C32.1406 5.42221 30.0659 5.18081 27.739 3.87109C25.9012 4.9805 23.842 5.68416 21.4275 5.68416C21.4018 5.68416 21.3812 5.68416 21.3606 5.68416V17.636H36.3105H36.3054Z" fill="#FFD200"/>
<path d="M33.0312 34.5602C35.9656 32.4236 37.6954 29.008 37.4431 24.026C37.4122 23.7435 37.3916 23.7281 37.3711 23.4404H33.0364V34.5602H33.0312Z" fill="#002596"/>
<path d="M28.3877 36.7069C30.1329 36.2343 31.703 35.5307 33.0312 34.5651V23.4453H28.3877V36.7069Z" fill="#8B2346"/>
<path d="M9.82898 34.5602C11.1572 35.5258 12.7273 36.2346 14.4725 36.702V23.4404H9.82898V34.5602Z" fill="#8B2346"/>
<path d="M5.42223 24.026C5.16998 29.008 6.89972 32.4236 9.83411 34.5602V23.4404H5.4943C5.47371 23.7281 5.45312 23.7435 5.42223 24.026Z" fill="#002596"/>
<path d="M21.4429 25.9006C22.2923 25.9006 23.08 26.1472 23.7544 26.5632V23.4404H19.1108V26.5735C19.7852 26.1472 20.5832 25.8955 21.4429 25.8955V25.9006Z" fill="#8B2346"/>
<path d="M21.4429 34.6269C20.5832 34.6269 19.7852 34.3753 19.1108 33.949V37.4005C19.1932 37.4005 19.2756 37.4107 19.3579 37.4159C20.8972 37.4262 22.2975 37.4313 23.5073 37.4159C23.5896 37.4159 23.672 37.4056 23.7544 37.4005V33.9592C23.0851 34.3753 22.2923 34.6218 21.4429 34.6218V34.6269Z" fill="#8B2346"/>
<path d="M23.7493 23.4453V26.5681C24.9848 27.3385 25.8136 28.7047 25.8136 30.2713C25.8136 31.8378 24.9899 33.1989 23.7493 33.9693V37.4105C25.3863 37.3283 26.9462 37.1024 28.3928 36.712V23.4504H23.7493V23.4453Z" fill="#002596"/>
<path d="M17.067 30.2661C17.067 28.7099 17.8856 27.3539 19.1108 26.5784V23.4453H14.4673V36.7069C15.9087 37.0921 17.4686 37.3232 19.1108 37.4054V33.9539C17.8856 33.1783 17.067 31.8224 17.067 30.2661Z" fill="#002596"/>
<path d="M7.59985 9.16647C7.90874 10.6816 7.91903 12.1711 7.72341 13.5836H12.2331V17.636H16.6604V13.5836H21.376V9.16647H16.6604V4.67233C16.1302 4.44121 15.6205 4.16899 15.1263 3.87109C14.1379 4.43093 13.1958 4.79047 12.2331 5.02673V9.16647H7.59985Z" fill="#CC092F"/>
<path d="M30.9051 17.6362V5.08862C30.3697 4.97048 29.8446 4.8164 29.3143 4.61609V17.6362H30.9051Z" fill="#CC092F"/>
<path d="M24.5369 17.6362V5.26831C24.0221 5.41212 23.497 5.51485 22.9462 5.58675V17.6362H24.5369Z" fill="#CC092F"/>
<path d="M34.0866 17.6358V5.4169C33.5358 5.40662 33.0107 5.38094 32.4958 5.33472V17.6358H34.0866Z" fill="#CC092F"/>
<path d="M27.7236 17.6362V3.88159C27.2139 4.18976 26.6837 4.46711 26.1328 4.70338V17.6362H27.7236Z" fill="#CC092F"/>
<path d="M41.8601 21.4627L41.2526 20.8361C38.6631 18.155 34.9977 11.4472 39.6722 5.25299L40.0377 4.76506L38.2719 2.29456L37.6387 2.51028C36.6863 2.839 35.6979 3.00849 34.7764 3.00849C32.1097 3.00849 30.3593 2.74655 28.2075 1.32897L27.7029 0.995117L27.2087 1.33924C25.304 2.65923 23.4661 3.27043 21.4326 3.27043C19.3991 3.27043 17.5613 2.6541 15.6565 1.33924L15.1623 0.995117L14.6578 1.32897C12.5059 2.75168 10.7556 3.00849 8.08888 3.00849C7.16738 3.00849 6.17896 2.83386 5.22657 2.51028L4.59336 2.29456L2.81728 4.76506L3.18279 5.25299C7.85722 11.4472 4.19181 18.155 1.60234 20.8361L0.994873 21.4627L1.61264 22.079C1.94726 22.4129 2.53414 23.0241 3.0232 23.5326C3.0232 23.5634 3.0232 23.5891 3.0232 23.6096C3.0232 23.661 3.0232 23.7072 3.00776 23.7945V23.851C2.7658 28.3195 3.93441 31.997 6.4724 34.7859C9.16483 37.7392 13.3759 39.506 18.3541 39.7782C19.5896 40.8979 20.8406 41.8276 20.8972 41.8687L21.4275 42.2641L21.9577 41.8687C22.0144 41.8276 23.2602 40.8979 24.4906 39.7782C29.4687 39.506 33.6798 37.7392 36.3723 34.7859C38.9154 31.997 40.0788 28.3195 39.842 23.851V23.7945C39.8266 23.7072 39.8266 23.6661 39.8215 23.6096C39.8215 23.5839 39.8215 23.5583 39.8215 23.5326C40.3105 23.019 40.9025 22.4078 41.232 22.079L41.8498 21.4627H41.8601ZM38.9102 23.209C38.9566 23.6558 38.9308 23.6404 38.9617 23.9024C39.492 33.8614 32.537 38.5661 24.1353 38.9102C22.8483 40.1069 21.4378 41.1599 21.4378 41.1599C21.4378 41.1599 20.0169 40.1069 18.7299 38.9102C10.3231 38.561 3.36812 33.8614 3.90352 23.9024C3.93441 23.6404 3.90352 23.6558 3.955 23.209C3.47108 22.7005 2.67314 21.8685 2.25614 21.4524C5.2729 18.3296 8.78902 11.1904 3.90352 4.71883L4.93313 3.35261C5.91126 3.68646 6.99235 3.90218 8.08373 3.90218C10.8843 3.90218 12.7942 3.62483 15.1469 2.07371C17.0053 3.36289 19.0182 4.16413 21.4326 4.16413C23.8471 4.16413 25.8599 3.35775 27.7184 2.07371C30.071 3.62483 31.981 3.90218 34.7815 3.90218C35.8729 3.90218 36.9591 3.68646 37.9321 3.35261L38.9617 4.71883C34.0814 11.1904 37.5975 18.3348 40.6143 21.4524C40.1921 21.8736 39.3942 22.7005 38.9154 23.209H38.9102Z" fill="black"/>
<path d="M5.3604 23.435C5.35011 23.5891 5.33466 23.661 5.32437 23.7432C5.31407 23.8151 5.30377 23.887 5.28833 24.0257C5.0927 27.8573 6.05024 30.9544 8.14035 33.24C10.5342 35.8594 14.4107 37.3489 19.3579 37.5543H19.5484C20.3721 37.5595 21.1546 37.5646 21.8856 37.5646C22.4571 37.5646 23.0028 37.5646 23.5176 37.5543C28.4597 37.3489 32.3362 35.8594 34.73 33.24C36.815 30.9544 37.7777 27.8573 37.5769 24.0206C37.5614 23.8922 37.5512 23.8151 37.5409 23.7432C37.5306 23.661 37.5151 23.5891 37.5048 23.435L37.4945 23.3118H5.3707L5.3604 23.435ZM5.55088 24.0462C5.56632 23.923 5.57662 23.8511 5.58692 23.7843C5.59721 23.7227 5.60751 23.6662 5.61266 23.5788H37.2423C37.2526 23.6662 37.2629 23.7227 37.268 23.7843C37.2783 23.8511 37.2886 23.923 37.304 24.0411C37.4945 27.7956 36.5627 30.8311 34.5241 33.0602C32.1817 35.6231 28.367 37.0869 23.5021 37.2873C22.3438 37.3027 21.0105 37.2975 19.5433 37.2873H19.3579C14.4879 37.0869 10.6732 35.6231 8.33083 33.0551C6.2922 30.826 5.3604 27.7905 5.55088 24.0411V24.0462Z" fill="black"/>
<path d="M6.4312 17.5849L6.34883 17.7698H36.5112L36.4289 17.5849C35.1213 14.5854 34.138 10.0193 36.9025 5.29921L37.0518 5.04754L36.7635 5.10404C36.0943 5.23244 35.4302 5.29408 34.7815 5.29408C32.0891 5.29408 30.0865 5.0424 27.8059 3.75837L27.739 3.72241L27.672 3.7635C25.6746 4.9705 23.6308 5.55602 21.4275 5.56116C19.2292 5.56116 17.1906 4.9705 15.1932 3.7635L15.1263 3.72241L15.0593 3.75837C12.7839 5.0424 10.7762 5.29408 8.08372 5.29408C7.45566 5.29408 6.79156 5.23244 6.10687 5.11431L5.82373 5.06295L5.96788 5.30948C8.72723 10.0245 7.74395 14.5854 6.43635 17.5849H6.4312ZM21.5098 5.8231C23.7081 5.80769 25.7467 5.22217 27.7441 4.03058C30.0453 5.30948 32.0685 5.56116 34.7815 5.56116C35.3529 5.56116 35.945 5.50979 36.5318 5.41221C33.9424 10.045 34.833 14.5032 36.1046 17.5027H21.5047V5.8231H21.5098ZM6.33854 5.42248C6.94086 5.51493 7.52773 5.56116 8.08372 5.56116C10.7916 5.56116 12.8199 5.30948 15.1211 4.03058C17.0877 5.20163 19.0903 5.79228 21.2421 5.8231V17.5079H6.75553C8.0271 14.5032 8.92286 10.0502 6.33339 5.42248H6.33854Z" fill="black"/>
<path d="M17.6231 19.3675V18.4893H14.6372V22.6187H15.5381V20.9135H16.7582V20.0404H15.5381V19.3675H17.6231Z" fill="black"/>
<path d="M21.1186 19.3153C21.4429 19.3153 21.6746 19.4489 21.8187 19.7313L21.8393 19.7673L22.6682 19.3872L22.6476 19.3461C22.3541 18.7452 21.829 18.4268 21.1289 18.4268C20.0427 18.4268 19.2859 19.2999 19.2859 20.5531C19.2859 21.8063 19.9963 22.6795 21.098 22.6795C21.8187 22.6795 22.3335 22.3662 22.6373 21.7447L22.6527 21.7088L21.8959 21.2619L21.8754 21.2979C21.6591 21.6574 21.4584 21.7909 21.1186 21.7909C20.5729 21.7909 20.2022 21.2927 20.2022 20.5531C20.2022 19.8135 20.5523 19.3153 21.1134 19.3153H21.1186Z" fill="black"/>
<path d="M28.053 19.6034C28.053 18.91 27.5588 18.494 26.7248 18.494H24.8252V22.6235H26.7094C27.6412 22.6235 28.192 22.1201 28.192 21.2778C28.192 20.8875 28.0015 20.5639 27.6721 20.3893C27.9192 20.2146 28.0582 19.9321 28.0582 19.6086L28.053 19.6034ZM25.7055 19.3261H26.6888C27.0903 19.3261 27.1418 19.511 27.1418 19.6702C27.1418 19.8962 27.008 20.0092 26.73 20.0092H25.7055V19.3312V19.3261ZM26.7351 21.7657H25.7055V20.8104H26.7351C27.1006 20.8104 27.2705 20.9594 27.2705 21.2881C27.2705 21.6168 27.0852 21.7709 26.7351 21.7709V21.7657Z" fill="black"/>
<path d="M21.412 34.6986C23.8728 34.6986 25.8805 32.7006 25.8805 30.2404C25.8805 27.7802 23.8779 25.7822 21.412 25.7822C18.9461 25.7822 16.9435 27.7802 16.9435 30.2404C16.9435 32.7006 18.9461 34.6986 21.412 34.6986ZM21.412 34.4315C20.542 34.4315 19.7389 34.1696 19.0696 33.7176C19.9551 33.6765 21.134 33.4505 21.865 33.0139C22.5754 32.5928 23.3271 32.0689 23.4661 31.3652C23.9809 31.1084 24.9641 31.2317 25.0928 32.2641C24.3773 33.5532 22.9976 34.4315 21.4171 34.4315H21.412ZM19.3425 31.2009C19.5484 31.3344 19.7955 31.4269 20.0889 31.468C20.6707 31.545 21.4841 30.9646 21.5355 30.3072C22.3386 29.7422 22.9564 30.2558 23.1417 30.6975C23.5072 31.5758 22.735 32.2076 21.7363 32.8034C20.9641 33.2605 19.6205 33.4813 18.7401 33.4762C18.2768 33.0961 17.8959 32.6185 17.6333 32.074C17.6694 32.074 17.7002 32.074 17.7363 32.074C18.4261 32.074 19.013 31.7556 19.3425 31.2009ZM18.6732 29.0848C18.6629 28.263 18.8946 27.5439 19.0799 26.7581C19.6514 26.3729 20.3206 26.1315 21.0465 26.0699C20.5626 26.5989 20.6604 27.3693 21.1597 27.7699C21.0413 27.8572 20.9384 27.9702 20.8457 28.114C20.475 28.6996 20.4236 29.6857 21.2833 30.3072C21.2318 30.8003 20.5729 31.283 20.1198 31.2214C19.1468 31.0981 18.6887 30.1942 18.6732 29.0899V29.0848ZM23.4867 31.0879C23.4815 30.9338 23.4455 30.7694 23.3734 30.5999C23.152 30.0658 22.3798 29.4186 21.412 30.0863C20.7016 29.5522 20.7427 28.7355 21.0568 28.2424C21.5458 27.472 22.6527 27.7802 23.6668 28.3452C24.4905 28.8023 25.3502 29.7627 25.5922 30.6308C25.551 31.0827 25.4378 31.509 25.2679 31.9097C24.9847 31.0211 24.0581 30.8927 23.4867 31.093V31.0879ZM23.7904 28.1243C23.0594 27.7134 22.0967 27.3436 21.4017 27.6312C20.8766 27.3077 20.7839 26.4859 21.448 26.0544C23.6668 26.075 25.4738 27.8059 25.6025 29.9887C25.2061 29.2337 24.4802 28.5095 23.7904 28.1243ZM18.7607 26.9892C18.6835 27.2974 18.6063 27.5645 18.5445 27.8418C18.3283 28.828 18.3335 30.3175 19.1365 31.0468C18.8586 31.5399 18.354 31.8275 17.7311 31.8275C17.6591 31.8275 17.5818 31.8275 17.5149 31.8121C17.3193 31.3293 17.2112 30.7951 17.2112 30.2404C17.2112 28.9307 17.8186 27.7545 18.7607 26.9892Z" fill="black"/>
<path d="M60.6042 15.4065C60.6042 17.913 59.2245 19.4127 56.0481 19.4127H50.792V5.43726H55.8628C59.2193 5.43726 60.3982 6.95756 60.3982 9.25856C60.3982 11.5596 58.7715 12.3402 58.7715 12.3402V12.3813C58.7715 12.3813 60.6042 13.3264 60.6042 15.4014V15.4065ZM53.5153 7.88207V11.1281H56.563C56.563 11.1281 57.6543 10.7172 57.6543 9.44346C57.6543 8.58058 57.1807 7.88207 55.9658 7.88207H53.5153ZM57.8603 15.2627C57.8603 13.9684 56.6247 13.537 56.6247 13.537H53.5153V16.9268H56.1305C57.2631 16.9268 57.8603 16.29 57.8603 15.2627Z" fill="white"/>
<path d="M73.2941 17.8513V19.4127H70.7818L70.0199 16.4749C69.1962 16.6392 68.3725 16.7214 67.5282 16.7214C66.684 16.7214 65.8809 16.6392 65.0984 16.4954L64.3365 19.4127H61.886V17.8513L65.3249 5.43726H69.8603L73.2992 17.8513H73.2941ZM69.4021 14.1328L68.5785 11.0305C68.249 9.73622 67.8371 7.92829 67.8371 7.92829H67.2811C67.2811 7.92829 66.8693 9.73622 66.5192 11.0305L65.7161 14.1533C66.2927 14.256 66.9105 14.3177 67.5282 14.3177C68.146 14.3177 68.7844 14.256 69.4021 14.1328Z" fill="white"/>
<path d="M82.2106 13.7784C82.2106 13.7784 83.5903 16.2437 85.0317 17.7229V19.4076H82.8901C81.1398 17.497 79.3483 14.0609 79.3483 14.0609H77.8862V19.4076H75.0857V5.43726H80.383C83.4307 5.43726 85.1038 6.87538 85.1038 9.58727C85.1038 12.7717 82.2209 13.7835 82.2209 13.7835L82.2106 13.7784ZM80.9957 11.539C80.9957 11.539 82.293 11.2103 82.293 9.71054C82.293 8.60113 81.6134 7.96425 80.4808 7.96425H77.8862V11.539H80.9957Z" fill="white"/>
<path d="M89.4435 10.594V14.2509C89.4435 16.1616 90.0201 17.0655 91.8528 17.0655C93.5825 17.0655 93.7473 15.8123 93.7473 15.8123H96.033V17.9901C96.033 17.9901 95.0446 19.1611 92.8824 19.4693C92.8618 21.4005 91.7498 22.5715 91.7498 22.5715H89.9171V21.195C89.9171 21.195 90.6378 20.6403 90.6584 19.4693C88.0432 19.0995 86.6429 17.4353 86.6429 14.1842V10.6505C86.6429 6.94732 88.4756 5.2832 91.8373 5.2832C94.7202 5.2832 96.0381 6.84459 96.0381 6.84459V9.02233H93.7524C93.7524 9.02233 93.5877 7.7691 91.8579 7.7691C90.0252 7.7691 89.4486 8.67307 89.4486 10.5837L89.4435 10.594Z" fill="white"/>
<path d="M108.625 17.8513V19.4127H106.113L105.351 16.4749C104.527 16.6392 103.704 16.7214 102.859 16.7214C102.015 16.7214 101.212 16.6392 100.429 16.4954L99.6675 19.4127H97.217V17.8513L100.656 5.43726H105.191L108.63 17.8513H108.625ZM104.733 14.1328L103.91 11.0305C103.58 9.73622 103.168 7.92829 103.168 7.92829H102.612C102.612 7.92829 102.2 9.73622 101.85 11.0305L101.047 14.1533C101.624 14.256 102.242 14.3177 102.859 14.3177C103.477 14.3177 104.115 14.256 104.733 14.1328Z" fill="white"/>
<path d="M50.792 29.2798C50.792 25.7564 52.3982 23.969 55.5488 23.969C58.6994 23.969 60.3056 25.7512 60.3056 29.2798V32.6851C60.3056 36.2085 58.6994 37.9907 55.5488 37.9907C52.3982 37.9907 50.792 36.2085 50.792 32.6851V29.2798ZM55.5488 37.133C58.0199 37.133 59.3429 35.813 59.3429 32.7672V29.2027C59.3429 26.157 58.0199 24.837 55.5488 24.837C53.0777 24.837 51.7547 26.157 51.7547 29.2027V32.7672C51.7547 35.813 53.0777 37.133 55.5488 37.133Z" fill="white"/>
<path d="M64.2284 27.6972V25.7146C64.2284 23.2904 65.9375 22.9719 65.9375 22.9719H66.6789V23.7732H66.5965C65.8964 23.7732 65.1499 24.256 65.1499 25.7968V27.7023H69.8501V25.7198C69.8501 23.2955 71.5592 22.9771 71.5592 22.9771H72.3005V23.7783H72.2182C71.5129 23.7783 70.7716 24.2611 70.7716 25.8019V27.7075H76.1307V37.8051H75.2092V28.5498H70.7716V37.8051H69.8501V28.5498H65.1499V37.8051H64.2284V28.5498H62.2618V27.7075H64.2284V27.6972ZM75.6931 23.4085C76.1564 23.4085 76.3572 23.6704 76.3572 24.0505V24.1327C76.3572 24.4922 76.1564 24.7542 75.6931 24.7542C75.2298 24.7542 75.0084 24.4922 75.0084 24.1327V24.0505C75.0084 23.6704 75.2092 23.4085 75.6931 23.4085Z" fill="white"/>
<path d="M79.3636 32.4484C79.3636 28.8633 81.0316 27.5999 83.4975 27.5999C85.4641 27.5999 86.4113 28.4216 86.4113 28.4216V29.1612H85.6906C85.6906 29.1612 85.0265 28.4576 83.5027 28.4576C81.4538 28.4576 80.3109 29.5413 80.3109 32.5049V33.0082C80.3109 35.9512 81.4538 37.0555 83.5027 37.0555C85.0265 37.0555 85.6906 36.3519 85.6906 36.3519H86.4113V37.0915C86.4113 37.0915 85.4692 37.8927 83.4975 37.8927C81.0265 37.8927 79.3636 36.6498 79.3636 33.0442V32.4432V32.4484Z" fill="white"/>
<path d="M89.7679 23.4143C90.2313 23.4143 90.432 23.6763 90.432 24.0563V24.1385C90.432 24.498 90.2313 24.76 89.7679 24.76C89.3046 24.76 89.0833 24.498 89.0833 24.1385V24.0563C89.0833 23.6763 89.284 23.4143 89.7679 23.4143ZM89.284 27.703H90.2055V37.8007H89.284V27.703Z" fill="white"/>
<path d="M94.0459 28.2983C94.0459 28.2983 95.2094 27.5587 97.2171 27.5587C99.5235 27.5587 100.61 28.6424 100.61 30.6815V37.7951H99.8684L99.75 36.6548H99.7088C99.7088 36.6548 98.5042 37.9594 96.414 37.9594C94.3239 37.9594 93.3201 36.7987 93.3201 35.1345C93.3201 33.4704 94.1438 32.2891 96.795 32.2891H99.6882V30.7277C99.6882 29.1869 98.8233 28.4216 97.1605 28.4216C95.4977 28.4216 94.7718 29.0636 94.7718 29.0636H94.0511V28.3035L94.0459 28.2983ZM99.6882 35.8279V33.0647H96.759C94.7924 33.0647 94.2467 33.9276 94.2467 35.1089C94.2467 36.4135 94.9108 37.112 96.6354 37.112C98.5608 37.112 99.6882 35.8279 99.6882 35.8279Z" fill="white"/>
<path d="M105.469 37.7951C105.469 37.7951 104.383 37.5537 104.383 36.0899V22.967H105.305V36.0077C105.305 36.6703 105.644 36.9887 106.108 36.9887H106.309V37.79H105.464L105.469 37.7951Z" fill="white"/>
<path d="M112.996 36.4344H113.717C113.717 36.4344 114.499 37.0969 116.749 37.0969C118.998 37.0969 120.141 35.9773 120.141 34.2515C120.141 32.5258 119.096 31.93 117.531 31.4266L116.105 30.9644C113.856 30.2248 113.191 29.0434 113.191 27.4564C113.191 25.2735 114.777 24.01 117.325 24.01C119.616 24.01 120.78 24.8113 120.78 24.8113V25.5919H120.059C120.059 25.5919 119.235 24.8729 117.331 24.8729C115.261 24.8729 114.159 25.8539 114.159 27.4358C114.159 28.8175 114.865 29.5571 116.43 30.0604L117.856 30.5227C120.146 31.2828 121.068 32.2433 121.109 34.1899C121.15 36.6141 119.4 37.9547 116.775 37.9547C114.149 37.9547 113.001 37.1945 113.001 37.1945V36.4344H112.996Z" fill="white"/>
<path d="M122.576 27.697H124.543V25.1135H125.464V27.697H127.513V28.5393H125.464V35.4115C125.464 36.4747 125.964 36.9935 126.731 36.9935H127.05V37.7947H126.129C126.129 37.7947 124.543 37.5738 124.543 35.4732V28.5445H122.576V27.7021V27.697Z" fill="white"/>
<path d="M129.341 32.4484C129.341 28.9609 131.066 27.5382 133.475 27.5382C135.884 27.5382 137.609 28.9609 137.609 32.4484V33.0493C137.609 36.5368 135.884 37.9595 133.475 37.9595C131.066 37.9595 129.341 36.5368 129.341 33.0493V32.4484ZM133.475 37.1171C135.302 37.1171 136.667 36.1361 136.667 32.9928V32.51C136.667 29.3667 135.302 28.4011 133.475 28.4011C131.647 28.4011 130.283 29.3615 130.283 32.51V32.9928C130.283 36.1361 131.647 37.1171 133.475 37.1171Z" fill="white"/>
<path d="M141.49 27.6974L141.629 29.1817H141.67C141.67 29.1817 142.474 27.6974 144.502 27.6974H144.842V28.5603H144.301C142.515 28.5603 141.65 30.1011 141.65 30.1011V37.7951H140.728V27.6974H141.49Z" fill="white"/>
<path d="M146.35 32.4843C146.35 29.1201 147.895 27.5382 150.247 27.5382C152.6 27.5382 154 28.7195 154 31.6831C154 32.3046 153.897 33.0647 153.897 33.0647H147.292V33.1058C147.292 35.9307 148.435 37.112 150.566 37.112C152.173 37.112 152.934 36.4905 152.934 36.4905H153.655V37.2301C153.655 37.2301 152.61 37.9492 150.525 37.9492C147.997 37.9492 146.35 36.4854 146.35 33.039V32.4792V32.4843ZM147.292 32.284H153.017C153.017 32.284 153.058 31.9861 153.058 31.5804C153.058 29.3975 152.173 28.3754 150.247 28.3754C148.579 28.3754 147.297 29.3564 147.297 32.2429V32.284H147.292Z" fill="white"/>
</g>
<defs>
<clipPath id="clip0_1_2">
<rect width="154" height="43" fill="white"/>
</clipPath>
</defs>
</svg>
